<?xml version="1.0" encoding="UTF-8" standalone="no"?>
<!-- Uploaded to: SVG Repo, www.svgrepo.com, Generator: SVG Repo Mixer Tools -->

<svg
   width="800px"
   height="800px"
   viewBox="0 0 16 16"
   fill="#000000"
   class="bi bi-hexagon"
   version="1.1"
   id="svg373"
   sodipodi:docname="logo.svg"
   inkscape:version="1.2.2 (732a01da63, 2022-12-09)"
   xmlns:inkscape="http://www.inkscape.org/namespaces/inkscape"
   xmlns:sodipodi="http://sodipodi.sourceforge.net/DTD/sodipodi-0.dtd"
   xmlns="http://www.w3.org/2000/svg"
   xmlns:svg="http://www.w3.org/2000/svg">
  <defs
     id="defs377" />
  <sodipodi:namedview
     id="namedview375"
     pagecolor="#ffffff"
     bordercolor="#000000"
     borderopacity="0.25"
     inkscape:showpageshadow="2"
     inkscape:pageopacity="0.0"
     inkscape:pagecheckerboard="0"
     inkscape:deskcolor="#d1d1d1"
     showgrid="false"
     inkscape:zoom="0.64875"
     inkscape:cx="400.77071"
     inkscape:cy="376.1079"
     inkscape:window-width="1366"
     inkscape:window-height="705"
     inkscape:window-x="-5"
     inkscape:window-y="-5"
     inkscape:window-maximized="1"
     inkscape:current-layer="svg373">
    <inkscape:grid
       type="xygrid"
       id="grid383" />
  </sodipodi:namedview>
  <path
     d="M14 4.577v6.846L8 15l-6-3.577V4.577L8 1l6 3.577zM8.5.134a1 1 0 0 0-1 0l-6 3.577a1 1 0 0 0-.5.866v6.846a1 1 0 0 0 .5.866l6 3.577a1 1 0 0 0 1 0l6-3.577a1 1 0 0 0 .5-.866V4.577a1 1 0 0 0-.5-.866L8.5.134z"
     id="path371" />
  <text
     xml:space="preserve"
     style="font-style:normal;font-variant:normal;font-weight:bold;font-stretch:normal;font-size:8.53334px;font-family:Ebrima;-inkscape-font-specification:'Ebrima Bold';fill:#000000;stroke-width:0.02"
     x="5.4874763"
     y="10.989981"
     id="text381"><tspan
       sodipodi:role="line"
       id="tspan379"
       style="font-style:normal;font-variant:normal;font-weight:bold;font-stretch:normal;font-family:Ebrima;-inkscape-font-specification:'Ebrima Bold';stroke-width:0.02"
       x="5.4874763"
       y="10.989981">F</tspan></text>
</svg>
